<svg class="better-meta-logo" width="256" height="256" viewBox="0 0 256 256" fill="none" xmlns="http://www.w3.org/2000/svg">
    <style>
        @keyframes spin-hue {
        0%   { fill: oklch(65% 0.25 0); }
        16%  { fill: oklch(65% 0.25 60); }
        33%  { fill: oklch(65% 0.25 120); }
        50%  { fill: oklch(65% 0.25 180); }
        66%  { fill: oklch(65% 0.25 240); }
        83%  { fill: oklch(65% 0.25 300); }
        100% { fill: oklch(65% 0.25 360); }
        }
        .better-meta-logo .background { animation: spin-hue 30s linear infinite; }
    </style>
    <path class="background" d="M0 32C0 14.3269 14.3269 0 32 0H224C241.673 0 256 14.3269 256 32V224C256 241.673 241.673 256 224 256H32C14.3269 256 0 241.673 0 224V32Z" fill="#FF0099"/>
    <path d="M178 112.882H168V83H148V112.882H158V142.764H148V112.882H128V142.764H138V172.647H208V83H178V112.882Z" fill="white"/>
    <path d="M128 83H118V112.882H128V83Z" fill="white"/>
    <path d="M92.999 83H87.999V112.882H92.999V83Z" fill="white"/>
    <path d="M108 112.882H98.0005V142.765H108V112.882Z" fill="white"/>
    <path d="M72.9995 112.882H67.9995V142.765H72.9995V112.882Z" fill="white"/>
    <path d="M128 142.764H108V172.647H128V142.764Z" fill="white"/>
    <path d="M87.9995 142.764H77.9995V172.647H87.9995V142.764Z" fill="white"/>
    <path d="M53 142.764H48V172.647H53V142.764Z" fill="white"/>
</svg>
